<svg width="340" height="205" viewBox="0 0 340 205" fill="none" xmlns="http://www.w3.org/2000/svg">
<rect width="340" height="205" rx="10" fill="white"/>
<path d="M66.2883 115.08V113.5H70.3683V115.08H66.2883ZM68.5483 117.58V113.56H70.3683V117.58H68.5483ZM62.4883 117.58V110.32H64.3083V117.58H62.4883ZM62.4883 110.32C62.4883 109.587 62.6549 108.94 62.9883 108.38C63.3216 107.807 63.7883 107.367 64.3883 107.06C64.9883 106.74 65.6749 106.58 66.4483 106.58V108.16C65.7816 108.16 65.2549 108.347 64.8683 108.72C64.4949 109.093 64.3083 109.627 64.3083 110.32H62.4883ZM62.4883 117.56H64.3083C64.3083 118.253 64.4949 118.793 64.8683 119.18C65.2549 119.553 65.7816 119.74 66.4483 119.74V121.32C65.6749 121.32 64.9883 121.16 64.3883 120.84C63.7883 120.52 63.3216 120.08 62.9883 119.52C62.6549 118.96 62.4883 118.307 62.4883 117.56ZM68.8283 110.84C68.7483 110 68.4949 109.347 68.0683 108.88C67.6549 108.4 67.1083 108.16 66.4283 108.16V106.58C67.5616 106.58 68.4816 106.927 69.1883 107.62C69.9083 108.313 70.3416 109.273 70.4883 110.5L68.8283 110.84ZM70.3683 117.56C70.3683 118.307 70.2016 118.96 69.8683 119.52C69.5349 120.08 69.0683 120.52 68.4683 120.84C67.8816 121.16 67.2016 121.32 66.4283 121.32V119.74C67.0949 119.74 67.6149 119.553 67.9883 119.18C68.3616 118.793 68.5483 118.253 68.5483 117.56H70.3683ZM78.1273 121V114.12H79.9473V121H78.1273ZM75.6873 121.3L75.8273 119.8C76.3073 119.8 76.714 119.68 77.0473 119.44C77.394 119.2 77.6607 118.847 77.8473 118.38C78.034 117.913 78.1273 117.36 78.1273 116.72L79.0273 116.68C79.0273 117.587 78.8807 118.387 78.5873 119.08C78.294 119.773 77.894 120.32 77.3873 120.72C76.894 121.107 76.3273 121.3 75.6873 121.3ZM75.6873 121.3C75.0873 121.3 74.5407 121.16 74.0473 120.88C73.554 120.6 73.1607 120.22 72.8673 119.74C72.574 119.247 72.4273 118.7 72.4273 118.1L74.1473 118.04C74.1473 118.547 74.314 118.967 74.6473 119.3C74.994 119.633 75.3873 119.8 75.8273 119.8L75.6873 121.3ZM72.4273 118.1C72.4273 117.473 72.5807 116.927 72.8873 116.46C73.2073 115.98 73.634 115.6 74.1673 115.32C74.7007 115.04 75.3073 114.9 75.9873 114.9L76.0873 116.3C75.5273 116.3 75.0607 116.467 74.6873 116.8C74.3273 117.12 74.1473 117.533 74.1473 118.04L72.4273 118.1ZM76.0873 116.3L75.9873 114.9H79.0673V116.3H76.0873ZM78.1273 116.72V114.14H79.0273V116.68L78.1273 116.72ZM79.9473 114.16H78.1273C78.1273 113.573 77.9473 113.093 77.5873 112.72C77.2407 112.347 76.7873 112.16 76.2273 112.16V110.6C76.9473 110.6 77.5807 110.753 78.1273 111.06C78.6873 111.367 79.1273 111.793 79.4473 112.34C79.7807 112.873 79.9473 113.48 79.9473 114.16ZM74.3473 113.92L72.6673 113.58C72.7473 112.98 72.9473 112.46 73.2673 112.02C73.6007 111.58 74.0207 111.233 74.5273 110.98C75.0473 110.727 75.6207 110.6 76.2473 110.6V112.16C75.754 112.16 75.3273 112.307 74.9673 112.6C74.6207 112.88 74.414 113.32 74.3473 113.92ZM81.9852 121V110.9H83.8052V121H81.9852ZM87.2052 121V114.12H89.0252V121H87.2052ZM82.9852 114.16C82.9852 113.48 83.1118 112.873 83.3652 112.34C83.6318 111.793 83.9918 111.367 84.4452 111.06C84.8985 110.753 85.4052 110.6 85.9652 110.6L85.5052 112.22C85.0252 112.22 84.6185 112.4 84.2852 112.76C83.9652 113.12 83.8052 113.587 83.8052 114.16H82.9852ZM87.2052 114.12C87.2052 113.56 87.0452 113.107 86.7252 112.76C86.4052 112.4 85.9985 112.22 85.5052 112.22L85.9652 110.6C86.5518 110.6 87.0718 110.753 87.5252 111.06C87.9918 111.367 88.3585 111.787 88.6252 112.32C88.8918 112.84 89.0252 113.44 89.0252 114.12H87.2052ZM92.4052 121V114.12H94.2252V121H92.4052ZM88.2052 114.16C88.2052 113.48 88.3318 112.873 88.5852 112.34C88.8518 111.793 89.2052 111.367 89.6452 111.06C90.0985 110.753 90.6052 110.6 91.1652 110.6L90.7052 112.22C90.2252 112.22 89.8252 112.4 89.5052 112.76C89.1852 113.12 89.0252 113.587 89.0252 114.16H88.2052ZM92.4052 114.12C92.4052 113.56 92.2452 113.107 91.9252 112.76C91.6185 112.4 91.2118 112.22 90.7052 112.22L91.1652 110.6C91.7518 110.6 92.2718 110.753 92.7252 111.06C93.1918 111.367 93.5585 111.787 93.8252 112.32C94.0918 112.84 94.2252 113.44 94.2252 114.12H92.4052ZM96.4792 116.5V115.2H103.299V116.5H96.4792ZM99.5792 121.32V119.74H99.6792V121.32H99.5792ZM95.8992 117.42V114.48H97.7192V117.42H95.8992ZM101.479 115.2V114.16H103.299V115.2H101.479ZM103.299 114.16H101.479C101.479 113.573 101.299 113.093 100.939 112.72C100.593 112.347 100.139 112.16 99.5792 112.16V110.6C100.299 110.6 100.933 110.753 101.479 111.06C102.039 111.367 102.479 111.793 102.799 112.34C103.133 112.873 103.299 113.48 103.299 114.16ZM101.559 118L103.259 118.34C103.179 118.913 102.973 119.427 102.639 119.88C102.306 120.333 101.886 120.687 101.379 120.94C100.873 121.193 100.306 121.32 99.6792 121.32V119.74C100.159 119.74 100.573 119.6 100.919 119.32C101.279 119.027 101.493 118.587 101.559 118ZM95.8992 114.5C95.8992 113.74 96.0592 113.073 96.3792 112.5C96.7126 111.913 97.1526 111.453 97.6992 111.12C98.2592 110.773 98.8926 110.6 99.5992 110.6V112.16C99.0126 112.16 98.5526 112.367 98.2192 112.78C97.8859 113.18 97.7192 113.753 97.7192 114.5H95.8992ZM95.8992 117.42H97.7192C97.7192 118.153 97.8859 118.727 98.2192 119.14C98.5526 119.54 99.0126 119.74 99.5992 119.74V121.32C98.8926 121.32 98.2592 121.153 97.6992 120.82C97.1526 120.473 96.7126 120.007 96.3792 119.42C96.0592 118.833 95.8992 118.167 95.8992 117.42ZM114.357 117.26V110.64H116.177V117.26H114.357ZM110.257 121V119.42H112.237V121H110.257ZM110.257 108.48V106.9H112.237V108.48H110.257ZM110.257 108.48V106.9H112.237V108.48H110.257ZM116.177 110.64H114.357C114.357 109.947 114.171 109.413 113.797 109.04C113.424 108.667 112.904 108.48 112.237 108.48V106.9C113.011 106.9 113.691 107.06 114.277 107.38C114.877 107.687 115.344 108.127 115.677 108.7C116.011 109.26 116.177 109.907 116.177 110.64ZM116.177 117.24C116.177 117.987 116.011 118.64 115.677 119.2C115.344 119.76 114.877 120.2 114.277 120.52C113.691 120.84 113.011 121 112.237 121V119.42C112.904 119.42 113.424 119.233 113.797 118.86C114.171 118.473 114.357 117.933 114.357 117.24H116.177ZM108.977 121V106.9H110.797V121H108.977ZM118.491 116.5V115.2H125.311V116.5H118.491ZM121.591 121.32V119.74H121.691V121.32H121.591ZM117.911 117.42V114.48H119.731V117.42H117.911ZM123.491 115.2V114.16H125.311V115.2H123.491ZM125.311 114.16H123.491C123.491 113.573 123.311 113.093 122.951 112.72C122.604 112.347 122.151 112.16 121.591 112.16V110.6C122.311 110.6 122.944 110.753 123.491 111.06C124.051 111.367 124.491 111.793 124.811 112.34C125.144 112.873 125.311 113.48 125.311 114.16ZM123.571 118L125.271 118.34C125.191 118.913 124.984 119.427 124.651 119.88C124.318 120.333 123.898 120.687 123.391 120.94C122.884 121.193 122.318 121.32 121.691 121.32V119.74C122.171 119.74 122.584 119.6 122.931 119.32C123.291 119.027 123.504 118.587 123.571 118ZM117.911 114.5C117.911 113.74 118.071 113.073 118.391 112.5C118.724 111.913 119.164 111.453 119.711 111.12C120.271 110.773 120.904 110.6 121.611 110.6V112.16C121.024 112.16 120.564 112.367 120.231 112.78C119.898 113.18 119.731 113.753 119.731 114.5H117.911ZM117.911 117.42H119.731C119.731 118.153 119.898 118.727 120.231 119.14C120.564 119.54 121.024 119.74 121.611 119.74V121.32C120.904 121.32 120.271 121.153 119.711 120.82C119.164 120.473 118.724 120.007 118.391 119.42C118.071 118.833 117.911 118.167 117.911 117.42ZM130.08 121L133.2 110.9H135.02L131.76 121H130.08ZM129.9 121L126.62 110.9H128.44L131.56 121H129.9ZM136.655 116.5V115.2H143.475V116.5H136.655ZM139.755 121.32V119.74H139.855V121.32H139.755ZM136.075 117.42V114.48H137.895V117.42H136.075ZM141.655 115.2V114.16H143.475V115.2H141.655ZM143.475 114.16H141.655C141.655 113.573 141.475 113.093 141.115 112.72C140.768 112.347 140.315 112.16 139.755 112.16V110.6C140.475 110.6 141.108 110.753 141.655 111.06C142.215 111.367 142.655 111.793 142.975 112.34C143.308 112.873 143.475 113.48 143.475 114.16ZM141.735 118L143.435 118.34C143.355 118.913 143.148 119.427 142.815 119.88C142.482 120.333 142.062 120.687 141.555 120.94C141.048 121.193 140.482 121.32 139.855 121.32V119.74C140.335 119.74 140.748 119.6 141.095 119.32C141.455 119.027 141.668 118.587 141.735 118ZM136.075 114.5C136.075 113.74 136.235 113.073 136.555 112.5C136.888 111.913 137.328 111.453 137.875 111.12C138.435 110.773 139.068 110.6 139.775 110.6V112.16C139.188 112.16 138.728 112.367 138.395 112.78C138.062 113.18 137.895 113.753 137.895 114.5H136.075ZM136.075 117.42H137.895C137.895 118.153 138.062 118.727 138.395 119.14C138.728 119.54 139.188 119.74 139.775 119.74V121.32C139.068 121.32 138.435 121.153 137.875 120.82C137.328 120.473 136.888 120.007 136.555 119.42C136.235 118.833 136.075 118.167 136.075 117.42ZM145.525 121V106.6H147.345V121H145.525ZM155.015 117.42V114.48H156.835V117.42H155.015ZM149.395 117.42V114.48H151.215V117.42H149.395ZM153.055 112.18V110.6H153.175V112.18H153.055ZM153.055 121.3V119.72H153.175V121.3H153.055ZM149.395 114.5C149.395 113.753 149.555 113.087 149.875 112.5C150.209 111.913 150.649 111.453 151.195 111.12C151.755 110.773 152.389 110.6 153.095 110.6V112.18C152.509 112.18 152.049 112.38 151.715 112.78C151.382 113.18 151.215 113.753 151.215 114.5H149.395ZM156.835 114.5H155.015C155.015 113.753 154.849 113.18 154.515 112.78C154.195 112.38 153.735 112.18 153.135 112.18V110.6C153.842 110.6 154.469 110.773 155.015 111.12C155.575 111.453 156.015 111.913 156.335 112.5C156.669 113.087 156.835 113.753 156.835 114.5ZM149.395 117.4H151.215C151.215 118.133 151.382 118.707 151.715 119.12C152.049 119.52 152.509 119.72 153.095 119.72V121.3C152.389 121.3 151.755 121.133 151.195 120.8C150.649 120.453 150.209 119.987 149.875 119.4C149.555 118.813 149.395 118.147 149.395 117.4ZM156.835 117.4C156.835 118.147 156.669 118.813 156.335 119.4C156.015 119.987 155.575 120.453 155.015 120.8C154.469 121.133 153.842 121.3 153.135 121.3V119.72C153.735 119.72 154.195 119.52 154.515 119.12C154.849 118.707 155.015 118.133 155.015 117.4H156.835ZM158.684 120.98H160.504V125H158.684V120.98ZM160.504 110.9V121H158.684V110.9H160.504ZM166.124 114.12V117.78H164.304V114.12H166.124ZM164.304 117.78H166.124C166.124 118.447 165.984 119.047 165.704 119.58C165.424 120.113 165.038 120.533 164.544 120.84C164.064 121.147 163.518 121.3 162.904 121.3L162.444 119.68C162.991 119.68 163.438 119.507 163.784 119.16C164.131 118.8 164.304 118.34 164.304 117.78ZM159.704 117.72H160.504C160.504 118.307 160.684 118.78 161.044 119.14C161.404 119.5 161.871 119.68 162.444 119.68L162.904 121.3C162.291 121.3 161.744 121.147 161.264 120.84C160.784 120.52 160.404 120.093 160.124 119.56C159.844 119.013 159.704 118.4 159.704 117.72ZM164.304 114.12C164.304 113.56 164.131 113.107 163.784 112.76C163.438 112.4 162.991 112.22 162.444 112.22L162.904 110.6C163.518 110.6 164.064 110.753 164.544 111.06C165.038 111.367 165.424 111.787 165.704 112.32C165.984 112.853 166.124 113.453 166.124 114.12H164.304ZM159.704 114.16C159.704 113.48 159.844 112.873 160.124 112.34C160.404 111.793 160.784 111.367 161.264 111.06C161.744 110.753 162.291 110.6 162.904 110.6L162.444 112.22C161.871 112.22 161.404 112.4 161.044 112.76C160.684 113.12 160.504 113.587 160.504 114.16H159.704ZM168.374 116.5V115.2H175.194V116.5H168.374ZM171.474 121.32V119.74H171.574V121.32H171.474ZM167.794 117.42V114.48H169.614V117.42H167.794ZM173.374 115.2V114.16H175.194V115.2H173.374ZM175.194 114.16H173.374C173.374 113.573 173.194 113.093 172.834 112.72C172.487 112.347 172.034 112.16 171.474 112.16V110.6C172.194 110.6 172.827 110.753 173.374 111.06C173.934 111.367 174.374 111.793 174.694 112.34C175.027 112.873 175.194 113.48 175.194 114.16ZM173.454 118L175.154 118.34C175.074 118.913 174.867 119.427 174.534 119.88C174.2 120.333 173.78 120.687 173.274 120.94C172.767 121.193 172.2 121.32 171.574 121.32V119.74C172.054 119.74 172.467 119.6 172.814 119.32C173.174 119.027 173.387 118.587 173.454 118ZM167.794 114.5C167.794 113.74 167.954 113.073 168.274 112.5C168.607 111.913 169.047 111.453 169.594 111.12C170.154 110.773 170.787 110.6 171.494 110.6V112.16C170.907 112.16 170.447 112.367 170.114 112.78C169.78 113.18 169.614 113.753 169.614 114.5H167.794ZM167.794 117.42H169.614C169.614 118.153 169.78 118.727 170.114 119.14C170.447 119.54 170.907 119.74 171.494 119.74V121.32C170.787 121.32 170.154 121.153 169.594 120.82C169.047 120.473 168.607 120.007 168.274 119.42C167.954 118.833 167.794 118.167 167.794 117.42ZM177.044 121V110.9H178.864V121H177.044ZM178.044 114.34C178.044 113.647 178.164 113.02 178.404 112.46C178.657 111.9 178.997 111.467 179.424 111.16C179.85 110.84 180.33 110.68 180.864 110.68L180.464 112.38C179.997 112.38 179.61 112.567 179.304 112.94C179.01 113.3 178.864 113.767 178.864 114.34H178.044ZM181.744 112.92C181.544 112.747 181.33 112.613 181.104 112.52C180.89 112.427 180.677 112.38 180.464 112.38L180.864 110.68C181.17 110.68 181.457 110.733 181.724 110.84C181.99 110.933 182.257 111.107 182.524 111.36L181.744 112.92ZM197.641 121L190.861 113.32L192.001 112.14L198.841 119.88L197.641 121ZM191.801 121.32C190.601 121.32 189.667 121 189.001 120.36C188.334 119.72 188.001 118.86 188.001 117.78L189.801 117.84C189.801 118.467 189.981 118.94 190.341 119.26C190.701 119.58 191.187 119.74 191.801 119.74V121.32ZM191.801 121.32V119.74C192.041 119.74 192.294 119.693 192.561 119.6C192.827 119.507 193.107 119.353 193.401 119.14C193.707 118.927 194.034 118.64 194.381 118.28L195.401 119.52C194.974 119.96 194.554 120.313 194.141 120.58C193.741 120.833 193.347 121.02 192.961 121.14C192.587 121.26 192.201 121.32 191.801 121.32ZM188.001 117.78C187.987 117.327 188.081 116.873 188.281 116.42C188.481 115.953 188.741 115.513 189.061 115.1C189.381 114.673 189.721 114.28 190.081 113.92C190.454 113.547 190.807 113.213 191.141 112.92C191.487 112.613 191.774 112.353 192.001 112.14L193.161 113.46C192.974 113.673 192.694 113.94 192.321 114.26C191.961 114.58 191.587 114.933 191.201 115.32C190.814 115.707 190.481 116.113 190.201 116.54C189.934 116.967 189.801 117.4 189.801 117.84L188.001 117.78ZM195.401 119.52L194.381 118.28L197.161 115.26L198.281 116.32L195.401 119.52ZM190.861 113.32C190.554 112.973 190.247 112.613 189.941 112.24C189.634 111.867 189.374 111.473 189.161 111.06C188.961 110.633 188.861 110.187 188.861 109.72L190.621 109.7C190.621 109.993 190.694 110.287 190.841 110.58C190.987 110.86 191.167 111.133 191.381 111.4C191.607 111.667 191.814 111.913 192.001 112.14L190.861 113.32ZM188.861 109.72C188.847 109.133 188.974 108.607 189.241 108.14C189.521 107.66 189.914 107.287 190.421 107.02C190.927 106.74 191.494 106.6 192.121 106.6V108.18C191.694 108.18 191.334 108.327 191.041 108.62C190.747 108.9 190.607 109.26 190.621 109.7L188.861 109.72ZM194.001 109.92C193.934 109.32 193.721 108.88 193.361 108.6C193.014 108.32 192.594 108.18 192.101 108.18V106.6C192.727 106.6 193.294 106.727 193.801 106.98C194.321 107.233 194.741 107.587 195.061 108.04C195.394 108.48 195.601 108.993 195.681 109.58L194.001 109.92ZM206.033 121V119.42H211.573V121H206.033ZM206.333 114.78V113.16H210.373V114.78H206.333ZM205.013 106.9H206.833V121H205.013V106.9ZM206.233 106.9H211.373V108.48H206.233V106.9ZM213.567 121V110.9H215.387V121H213.567ZM219.187 121V114.12H221.007V121H219.187ZM219.187 114.12C219.187 113.56 219.014 113.107 218.667 112.76C218.321 112.4 217.874 112.22 217.327 112.22L217.787 110.6C218.401 110.6 218.947 110.753 219.427 111.06C219.921 111.367 220.307 111.787 220.587 112.32C220.867 112.853 221.007 113.453 221.007 114.12H219.187ZM214.587 114.16C214.587 113.48 214.727 112.873 215.007 112.34C215.287 111.793 215.667 111.367 216.147 111.06C216.627 110.753 217.174 110.6 217.787 110.6L217.327 112.22C216.754 112.22 216.287 112.4 215.927 112.76C215.567 113.12 215.387 113.587 215.387 114.16H214.587ZM228.497 121.36V110.9H230.317V121.36H228.497ZM222.877 117.52V114.12H224.697V117.52H222.877ZM224.697 114.12H222.877C222.877 113.453 223.017 112.853 223.297 112.32C223.577 111.787 223.957 111.367 224.437 111.06C224.93 110.753 225.49 110.6 226.117 110.6L226.577 112.22C226.03 112.22 225.577 112.4 225.217 112.76C224.87 113.107 224.697 113.56 224.697 114.12ZM229.297 114.16H228.497C228.497 113.587 228.317 113.12 227.957 112.76C227.597 112.4 227.137 112.22 226.577 112.22L226.117 110.6C226.717 110.6 227.257 110.753 227.737 111.06C228.23 111.367 228.61 111.793 228.877 112.34C229.157 112.873 229.297 113.48 229.297 114.16ZM224.697 117.52C224.697 118.08 224.87 118.54 225.217 118.9C225.577 119.247 226.03 119.42 226.577 119.42L226.117 121.04C225.49 121.04 224.93 120.887 224.437 120.58C223.957 120.273 223.577 119.853 223.297 119.32C223.017 118.787 222.877 118.187 222.877 117.52H224.697ZM229.297 117.46C229.297 118.14 229.157 118.753 228.877 119.3C228.61 119.833 228.23 120.26 227.737 120.58C227.257 120.887 226.717 121.04 226.117 121.04L226.577 119.42C227.137 119.42 227.597 119.24 227.957 118.88C228.317 118.52 228.497 118.047 228.497 117.46H229.297ZM230.317 121.3C230.317 121.98 230.157 122.587 229.837 123.12C229.517 123.667 229.077 124.093 228.517 124.4C227.957 124.72 227.323 124.88 226.617 124.88V123.3C227.163 123.3 227.61 123.107 227.957 122.72C228.317 122.347 228.497 121.873 228.497 121.3H230.317ZM224.717 121.56C224.783 122.147 224.997 122.58 225.357 122.86C225.717 123.153 226.137 123.3 226.617 123.3V124.88C226.003 124.88 225.437 124.753 224.917 124.5C224.397 124.247 223.97 123.893 223.637 123.44C223.317 122.987 223.117 122.473 223.037 121.9L224.717 121.56ZM232.849 121V110.9H234.669V121H232.849ZM233.749 109.56C233.416 109.56 233.136 109.447 232.909 109.22C232.683 108.993 232.569 108.713 232.569 108.38C232.569 108.047 232.683 107.767 232.909 107.54C233.136 107.3 233.416 107.18 233.749 107.18C234.083 107.18 234.363 107.3 234.589 107.54C234.829 107.767 234.949 108.047 234.949 108.38C234.949 108.713 234.829 108.993 234.589 109.22C234.363 109.447 234.083 109.56 233.749 109.56ZM237.278 121V110.9H239.098V121H237.278ZM242.898 121V114.12H244.718V121H242.898ZM242.898 114.12C242.898 113.56 242.725 113.107 242.378 112.76C242.031 112.4 241.585 112.22 241.038 112.22L241.498 110.6C242.111 110.6 242.658 110.753 243.138 111.06C243.631 111.367 244.018 111.787 244.298 112.32C244.578 112.853 244.718 113.453 244.718 114.12H242.898ZM238.298 114.16C238.298 113.48 238.438 112.873 238.718 112.34C238.998 111.793 239.378 111.367 239.858 111.06C240.338 110.753 240.885 110.6 241.498 110.6L241.038 112.22C240.465 112.22 239.998 112.4 239.638 112.76C239.278 113.12 239.098 113.587 239.098 114.16H238.298ZM246.968 116.5V115.2H253.788V116.5H246.968ZM250.068 121.32V119.74H250.168V121.32H250.068ZM246.388 117.42V114.48H248.208V117.42H246.388ZM251.968 115.2V114.16H253.788V115.2H251.968ZM253.788 114.16H251.968C251.968 113.573 251.788 113.093 251.428 112.72C251.081 112.347 250.628 112.16 250.068 112.16V110.6C250.788 110.6 251.421 110.753 251.968 111.06C252.528 111.367 252.968 111.793 253.288 112.34C253.621 112.873 253.788 113.48 253.788 114.16ZM252.048 118L253.748 118.34C253.668 118.913 253.461 119.427 253.128 119.88C252.794 120.333 252.374 120.687 251.868 120.94C251.361 121.193 250.794 121.32 250.168 121.32V119.74C250.648 119.74 251.061 119.6 251.408 119.32C251.768 119.027 251.981 118.587 252.048 118ZM246.388 114.5C246.388 113.74 246.548 113.073 246.868 112.5C247.201 111.913 247.641 111.453 248.188 111.12C248.748 110.773 249.381 110.6 250.088 110.6V112.16C249.501 112.16 249.041 112.367 248.708 112.78C248.374 113.18 248.208 113.753 248.208 114.5H246.388ZM246.388 117.42H248.208C248.208 118.153 248.374 118.727 248.708 119.14C249.041 119.54 249.501 119.74 250.088 119.74V121.32C249.381 121.32 248.748 121.153 248.188 120.82C247.641 120.473 247.201 120.007 246.868 119.42C246.548 118.833 246.388 118.167 246.388 117.42ZM255.854 116.5V115.2H262.674V116.5H255.854ZM258.954 121.32V119.74H259.054V121.32H258.954ZM255.274 117.42V114.48H257.094V117.42H255.274ZM260.854 115.2V114.16H262.674V115.2H260.854ZM262.674 114.16H260.854C260.854 113.573 260.674 113.093 260.314 112.72C259.968 112.347 259.514 112.16 258.954 112.16V110.6C259.674 110.6 260.308 110.753 260.854 111.06C261.414 111.367 261.854 111.793 262.174 112.34C262.508 112.873 262.674 113.48 262.674 114.16ZM260.934 118L262.634 118.34C262.554 118.913 262.348 119.427 262.014 119.88C261.681 120.333 261.261 120.687 260.754 120.94C260.248 121.193 259.681 121.32 259.054 121.32V119.74C259.534 119.74 259.948 119.6 260.294 119.32C260.654 119.027 260.868 118.587 260.934 118ZM255.274 114.5C255.274 113.74 255.434 113.073 255.754 112.5C256.088 111.913 256.528 111.453 257.074 111.12C257.634 110.773 258.268 110.6 258.974 110.6V112.16C258.388 112.16 257.928 112.367 257.594 112.78C257.261 113.18 257.094 113.753 257.094 114.5H255.274ZM255.274 117.42H257.094C257.094 118.153 257.261 118.727 257.594 119.14C257.928 119.54 258.388 119.74 258.974 119.74V121.32C258.268 121.32 257.634 121.153 257.074 120.82C256.528 120.473 256.088 120.007 255.754 119.42C255.434 118.833 255.274 118.167 255.274 117.42ZM264.524 121V110.9H266.344V121H264.524ZM265.524 114.34C265.524 113.647 265.644 113.02 265.884 112.46C266.138 111.9 266.478 111.467 266.904 111.16C267.331 110.84 267.811 110.68 268.344 110.68L267.944 112.38C267.478 112.38 267.091 112.567 266.784 112.94C266.491 113.3 266.344 113.767 266.344 114.34H265.524ZM269.224 112.92C269.024 112.747 268.811 112.613 268.584 112.52C268.371 112.427 268.158 112.38 267.944 112.38L268.344 110.68C268.651 110.68 268.938 110.733 269.204 110.84C269.471 110.933 269.738 111.107 270.004 111.36L269.224 112.92Z" fill="black"/>
<path d="M86.7993 92.808V89.768H94.9593V92.808H86.7993ZM92.2073 74.28L86.6073 97H82.9913L88.5913 74.28H92.2073ZM92.2713 74.28L97.8393 97H94.2233L88.6553 74.28H92.2713ZM109.316 97L105.284 86.12H108.964L112.996 97H109.316ZM103.332 87.848V84.808H106.052V87.848H103.332ZM103.332 77.288V74.28H106.052V77.288H103.332ZM109.028 81.64V80.488H112.74V81.64H109.028ZM112.74 80.52H109.028C109.028 79.496 108.761 78.7067 108.228 78.152C107.695 77.576 106.959 77.288 106.02 77.288V74.28C107.343 74.28 108.505 74.5467 109.508 75.08C110.511 75.6133 111.3 76.3493 111.876 77.288C112.452 78.2267 112.74 79.304 112.74 80.52ZM112.74 81.608C112.74 82.824 112.452 83.9013 111.876 84.84C111.3 85.7787 110.511 86.5147 109.508 87.048C108.505 87.5813 107.343 87.848 106.02 87.848V84.808C106.959 84.808 107.695 84.5307 108.228 83.976C108.761 83.4 109.028 82.6107 109.028 81.608H112.74ZM100.42 97V74.28H104.132V97H100.42ZM116.521 97V74.28H120.233V97H116.521ZM126.977 97V93.96H135.585V97H126.977ZM127.297 87.208V84.136H133.665V87.208H127.297ZM124.545 74.28H128.257V97H124.545V74.28ZM127.297 74.28H135.265V77.288H127.297V74.28ZM141.547 97V93.96H149.515V97H141.547ZM138.795 97V74.28H142.507V97H138.795ZM158.006 91.272V79.976H161.718V91.272H158.006ZM158.006 80.008C158.006 78.792 158.294 77.7147 158.87 76.776C159.446 75.8373 160.236 75.1013 161.238 74.568C162.262 74.0347 163.425 73.768 164.726 73.768V76.776C163.788 76.776 163.052 77.064 162.518 77.64C161.985 78.1947 161.718 78.984 161.718 80.008H158.006ZM158.006 91.272H161.718C161.718 92.2747 161.985 93.064 162.518 93.64C163.052 94.1947 163.788 94.472 164.726 94.472V97.512C163.425 97.512 162.262 97.2453 161.238 96.712C160.236 96.1787 159.446 95.4427 158.87 94.504C158.294 93.5653 158.006 92.488 158.006 91.272ZM168.214 80.904C168.108 79.624 167.745 78.6213 167.126 77.896C166.508 77.1493 165.697 76.776 164.694 76.776V73.768C166.636 73.768 168.214 74.344 169.43 75.496C170.646 76.6267 171.361 78.2267 171.574 80.296L168.214 80.904ZM168.214 90.344L171.574 90.984C171.361 93.032 170.646 94.632 169.43 95.784C168.214 96.936 166.636 97.512 164.694 97.512V94.472C165.697 94.472 166.508 94.1093 167.126 93.384C167.745 92.6587 168.108 91.6453 168.214 90.344ZM183.987 91.272V79.976H187.699V91.272H183.987ZM174.291 91.272V79.976H178.003V91.272H174.291ZM187.699 80.04H183.987C183.987 79.016 183.721 78.2267 183.187 77.672C182.654 77.096 181.918 76.808 180.979 76.808V73.8C182.302 73.8 183.465 74.0667 184.467 74.6C185.47 75.1333 186.259 75.8693 186.835 76.808C187.411 77.7467 187.699 78.824 187.699 80.04ZM174.291 80.04C174.291 78.824 174.579 77.7467 175.155 76.808C175.731 75.8693 176.521 75.1333 177.523 74.6C178.547 74.0667 179.71 73.8 181.011 73.8V76.808C180.073 76.808 179.337 77.096 178.803 77.672C178.27 78.2267 178.003 79.016 178.003 80.04H174.291ZM187.699 91.24C187.699 92.456 187.411 93.5333 186.835 94.472C186.259 95.4107 185.47 96.1467 184.467 96.68C183.465 97.2133 182.302 97.48 180.979 97.48V94.44C181.918 94.44 182.654 94.1627 183.187 93.608C183.721 93.032 183.987 92.2427 183.987 91.24H187.699ZM174.291 91.24H178.003C178.003 92.2427 178.27 93.032 178.803 93.608C179.337 94.1627 180.073 94.44 181.011 94.44V97.48C179.71 97.48 178.547 97.2133 177.523 96.68C176.521 96.1467 175.731 95.4107 175.155 94.472C174.579 93.5333 174.291 92.456 174.291 91.24ZM194.301 77.288V74.28H197.021V77.288H194.301ZM194.301 88.552V85.544H197.021V88.552H194.301ZM199.997 82.344V80.488H203.709V82.344H199.997ZM203.709 80.52H199.997C199.997 79.496 199.73 78.7067 199.197 78.152C198.663 77.576 197.927 77.288 196.989 77.288V74.28C198.311 74.28 199.474 74.5467 200.477 75.08C201.479 75.6133 202.269 76.3493 202.845 77.288C203.421 78.2267 203.709 79.304 203.709 80.52ZM203.709 82.312C203.709 83.528 203.421 84.6053 202.845 85.544C202.269 86.4827 201.479 87.2187 200.477 87.752C199.474 88.2853 198.311 88.552 196.989 88.552V85.544C197.927 85.544 198.663 85.2667 199.197 84.712C199.73 84.136 199.997 83.336 199.997 82.312H203.709ZM191.389 97V74.28H195.101V97H191.389ZM209.488 77.288V74.28H212.208V77.288H209.488ZM209.488 88.552V85.544H212.208V88.552H209.488ZM215.184 82.344V80.488H218.896V82.344H215.184ZM218.896 80.52H215.184C215.184 79.496 214.918 78.7067 214.384 78.152C213.851 77.576 213.115 77.288 212.176 77.288V74.28C213.499 74.28 214.662 74.5467 215.664 75.08C216.667 75.6133 217.456 76.3493 218.032 77.288C218.608 78.2267 218.896 79.304 218.896 80.52ZM218.896 82.312C218.896 83.528 218.608 84.6053 218.032 85.544C217.456 86.4827 216.667 87.2187 215.664 87.752C214.662 88.2853 213.499 88.552 212.176 88.552V85.544C213.115 85.544 213.851 85.2667 214.384 84.712C214.918 84.136 215.184 83.336 215.184 82.312H218.896ZM206.576 97V74.28H210.288V97H206.576ZM224.196 97V93.96H232.804V97H224.196ZM224.516 87.208V84.136H230.884V87.208H224.516ZM221.764 74.28H225.476V97H221.764V74.28ZM224.516 74.28H232.484V77.288H224.516V74.28ZM245.102 91.752C245.102 91.0053 244.878 90.3547 244.43 89.8C243.982 89.224 243.395 88.68 242.67 88.168C241.966 87.656 241.208 87.144 240.398 86.632C239.587 86.0987 238.819 85.512 238.094 84.872C237.39 84.2107 236.803 83.4427 236.334 82.568C235.886 81.6933 235.662 80.6693 235.662 79.496H239.374C239.374 80.2213 239.598 80.872 240.046 81.448C240.515 82.024 241.102 82.568 241.806 83.08C242.531 83.592 243.299 84.1147 244.11 84.648C244.92 85.16 245.678 85.7467 246.382 86.408C247.107 87.048 247.694 87.8053 248.142 88.68C248.59 89.5333 248.814 90.5573 248.814 91.752H245.102ZM235.662 79.528C235.662 78.376 235.95 77.3733 236.526 76.52C237.102 75.6453 237.891 74.9733 238.894 74.504C239.918 74.0133 241.08 73.768 242.382 73.768V76.808C241.443 76.808 240.707 77.0533 240.174 77.544C239.64 78.0133 239.374 78.6747 239.374 79.528H235.662ZM248.814 91.72C248.814 92.8933 248.526 93.9067 247.95 94.76C247.374 95.6133 246.584 96.2853 245.582 96.776C244.579 97.2453 243.416 97.48 242.094 97.48V94.472C243.032 94.472 243.768 94.2267 244.302 93.736C244.835 93.2453 245.102 92.5733 245.102 91.72H248.814ZM245.102 79.496C244.995 78.6 244.686 77.928 244.174 77.48C243.683 77.032 243.086 76.808 242.382 76.808V73.768C243.47 73.768 244.44 73.9813 245.294 74.408C246.147 74.8347 246.84 75.432 247.374 76.2C247.928 76.9467 248.28 77.832 248.43 78.856L245.102 79.496ZM238.574 90.344C238.68 91.624 239.043 92.6373 239.662 93.384C240.28 94.1093 241.091 94.472 242.094 94.472V97.48C240.152 97.48 238.574 96.904 237.358 95.752C236.163 94.6 235.448 93 235.214 90.952L238.574 90.344Z" fill="black"/>
<path d="M116.947 141V135H117.739V141H116.947ZM120.271 141V136.8H121.063V141H120.271ZM120.271 136.8C120.271 136.456 120.151 136.172 119.911 135.948C119.671 135.724 119.371 135.612 119.011 135.612L119.179 134.82C119.539 134.82 119.859 134.908 120.139 135.084C120.427 135.252 120.651 135.488 120.811 135.792C120.979 136.088 121.063 136.424 121.063 136.8H120.271ZM117.283 136.8C117.283 136.424 117.367 136.088 117.535 135.792C117.703 135.488 117.927 135.252 118.207 135.084C118.495 134.908 118.819 134.82 119.179 134.82L119.011 135.612C118.643 135.612 118.339 135.724 118.099 135.948C117.859 136.172 117.739 136.456 117.739 136.8H117.283ZM116.947 141V132.42H117.739V141H116.947ZM123.345 135.72V135H126.345V135.72H123.345ZM122.721 139.332V132.588L123.513 132.6V139.332H122.721ZM122.025 135.72V135H125.025V135.72H122.025ZM122.721 139.32H123.513C123.513 139.552 123.545 139.752 123.609 139.92C123.681 140.08 123.777 140.204 123.897 140.292C124.025 140.38 124.177 140.424 124.353 140.424L124.293 141.18C123.805 141.18 123.421 141.016 123.141 140.688C122.861 140.36 122.721 139.904 122.721 139.32ZM124.917 140.22L125.265 140.844C125.137 140.948 124.985 141.028 124.809 141.084C124.641 141.148 124.469 141.18 124.293 141.18L124.353 140.424C124.457 140.424 124.553 140.404 124.641 140.364C124.737 140.324 124.829 140.276 124.917 140.22ZM125.841 139.332V132.588L126.633 132.6V139.332H125.841ZM125.145 135.72V135H128.145V135.72H125.145ZM125.841 139.32H126.633C126.633 139.552 126.665 139.752 126.729 139.92C126.801 140.08 126.897 140.204 127.017 140.292C127.145 140.38 127.297 140.424 127.473 140.424L127.413 141.18C126.925 141.18 126.541 141.016 126.261 140.688C125.981 140.36 125.841 139.904 125.841 139.32ZM128.037 140.22L128.385 140.844C128.257 140.948 128.105 141.028 127.929 141.084C127.761 141.148 127.589 141.18 127.413 141.18L127.473 140.424C127.577 140.424 127.673 140.404 127.761 140.364C127.857 140.324 127.949 140.276 128.037 140.22ZM129.345 140.988H130.137V143.4H129.345V140.988ZM130.137 135V141H129.345V135H130.137ZM133.461 136.8V139.2H132.669V136.8H133.461ZM132.669 139.2H133.461C133.461 139.576 133.377 139.916 133.209 140.22C133.049 140.516 132.825 140.752 132.537 140.928C132.257 141.096 131.937 141.18 131.577 141.18L131.409 140.388C131.769 140.388 132.069 140.276 132.309 140.052C132.549 139.828 132.669 139.544 132.669 139.2ZM129.681 139.2H130.137C130.137 139.544 130.257 139.828 130.497 140.052C130.737 140.276 131.041 140.388 131.409 140.388L131.577 141.18C131.217 141.18 130.893 141.096 130.605 140.928C130.325 140.752 130.101 140.516 129.933 140.22C129.765 139.916 129.681 139.576 129.681 139.2ZM132.669 136.8C132.669 136.456 132.549 136.172 132.309 135.948C132.069 135.724 131.769 135.612 131.409 135.612L131.577 134.82C131.937 134.82 132.257 134.908 132.537 135.084C132.825 135.252 133.049 135.488 133.209 135.792C133.377 136.088 133.461 136.424 133.461 136.8H132.669ZM129.681 136.8C129.681 136.424 129.765 136.088 129.933 135.792C130.101 135.488 130.325 135.252 130.605 135.084C130.893 134.908 131.217 134.82 131.577 134.82L131.409 135.612C131.041 135.612 130.737 135.724 130.497 135.948C130.257 136.172 130.137 136.456 130.137 136.8H129.681ZM137.651 139.5C137.651 139.284 137.579 139.104 137.435 138.96C137.291 138.816 137.107 138.688 136.883 138.576C136.659 138.456 136.419 138.34 136.163 138.228C135.915 138.108 135.679 137.976 135.455 137.832C135.231 137.68 135.047 137.492 134.903 137.268C134.759 137.044 134.687 136.768 134.687 136.44C134.687 136.44 134.711 136.44 134.759 136.44C134.815 136.44 134.883 136.44 134.963 136.44C135.043 136.44 135.123 136.44 135.203 136.44C135.283 136.44 135.347 136.44 135.395 136.44C135.451 136.44 135.479 136.44 135.479 136.44C135.479 136.656 135.551 136.836 135.695 136.98C135.839 137.124 136.023 137.252 136.247 137.364C136.471 137.476 136.707 137.592 136.955 137.712C137.211 137.824 137.451 137.956 137.675 138.108C137.899 138.26 138.083 138.448 138.227 138.672C138.371 138.888 138.443 139.164 138.443 139.5C138.443 139.5 138.415 139.5 138.359 139.5C138.311 139.5 138.247 139.5 138.167 139.5C138.087 139.5 138.007 139.5 137.927 139.5C137.847 139.5 137.779 139.5 137.723 139.5C137.675 139.5 137.651 139.5 137.651 139.5ZM136.511 141.18V140.424C136.839 140.424 137.111 140.336 137.327 140.16C137.543 139.984 137.651 139.764 137.651 139.5H138.443C138.443 139.82 138.359 140.108 138.191 140.364C138.023 140.612 137.791 140.812 137.495 140.964C137.207 141.108 136.879 141.18 136.511 141.18ZM134.687 136.44C134.687 136.128 134.763 135.848 134.915 135.6C135.067 135.352 135.275 135.16 135.539 135.024C135.811 134.88 136.111 134.808 136.439 134.808V135.564C136.167 135.564 135.939 135.648 135.755 135.816C135.571 135.976 135.479 136.184 135.479 136.44H134.687ZM135.251 139.344C135.291 139.712 135.431 139.984 135.671 140.16C135.911 140.336 136.191 140.424 136.511 140.424V141.18C136.167 141.18 135.847 141.108 135.551 140.964C135.255 140.812 135.011 140.612 134.819 140.364C134.635 140.108 134.523 139.824 134.483 139.512L135.251 139.344ZM137.699 136.644C137.659 136.268 137.519 135.996 137.279 135.828C137.039 135.652 136.759 135.564 136.439 135.564V134.808C136.791 134.808 137.111 134.884 137.399 135.036C137.695 135.18 137.935 135.376 138.119 135.624C138.311 135.872 138.427 136.156 138.467 136.476L137.699 136.644ZM140.679 140.508C140.511 140.508 140.371 140.452 140.259 140.34C140.147 140.228 140.091 140.088 140.091 139.92C140.091 139.752 140.147 139.612 140.259 139.5C140.371 139.38 140.511 139.32 140.679 139.32C140.847 139.32 140.987 139.38 141.099 139.5C141.219 139.612 141.279 139.752 141.279 139.92C141.279 140.088 141.219 140.228 141.099 140.34C140.987 140.452 140.847 140.508 140.679 140.508ZM140.691 136.632C140.523 136.632 140.383 136.576 140.271 136.464C140.159 136.352 140.103 136.212 140.103 136.044C140.103 135.876 140.159 135.736 140.271 135.624C140.383 135.504 140.523 135.444 140.691 135.444C140.859 135.444 140.999 135.504 141.111 135.624C141.231 135.736 141.291 135.876 141.291 136.044C141.291 136.212 141.231 136.352 141.111 136.464C140.999 136.576 140.859 136.632 140.691 136.632ZM142.191 141L144.603 132.6H145.431L143.019 141H142.191ZM145.495 141L147.907 132.6H148.735L146.323 141H145.495ZM152.823 141V136.8H153.615V141H152.823ZM151.323 141.18V140.46C151.643 140.46 151.911 140.38 152.127 140.22C152.351 140.06 152.523 139.828 152.643 139.524C152.763 139.212 152.823 138.844 152.823 138.42H153.279C153.279 138.964 153.195 139.444 153.027 139.86C152.859 140.276 152.627 140.6 152.331 140.832C152.043 141.064 151.707 141.18 151.323 141.18ZM151.323 141.18C150.979 141.18 150.659 141.096 150.363 140.928C150.075 140.76 149.843 140.532 149.667 140.244C149.491 139.948 149.403 139.62 149.403 139.26H150.195C150.195 139.604 150.311 139.892 150.543 140.124C150.775 140.348 151.035 140.46 151.323 140.46V141.18ZM149.403 139.26C149.403 138.892 149.491 138.568 149.667 138.288C149.851 138 150.095 137.772 150.399 137.604C150.711 137.436 151.059 137.352 151.443 137.352V138.072C151.091 138.072 150.795 138.184 150.555 138.408C150.315 138.632 150.195 138.916 150.195 139.26H149.403ZM151.443 138.072V137.352H153.459V138.072H151.443ZM152.823 138.42V136.788H153.279V138.42H152.823ZM153.615 136.8H152.823C152.823 136.448 152.703 136.156 152.463 135.924C152.223 135.692 151.923 135.576 151.563 135.576V134.82C151.955 134.82 152.303 134.908 152.607 135.084C152.919 135.252 153.163 135.488 153.339 135.792C153.523 136.088 153.615 136.424 153.615 136.8ZM150.303 136.656L149.535 136.488C149.575 136.168 149.687 135.884 149.871 135.636C150.063 135.388 150.307 135.192 150.603 135.048C150.899 134.896 151.219 134.82 151.563 134.82V135.576C151.243 135.576 150.963 135.664 150.723 135.84C150.483 136.008 150.343 136.28 150.303 136.656ZM154.88 141V135H155.672V141H154.88ZM155.204 136.86C155.204 136.484 155.276 136.148 155.42 135.852C155.564 135.548 155.76 135.312 156.008 135.144C156.264 134.968 156.548 134.88 156.86 134.88L156.692 135.672C156.396 135.672 156.152 135.784 155.96 136.008C155.768 136.232 155.672 136.516 155.672 136.86H155.204ZM157.412 135.936C157.284 135.848 157.16 135.784 157.04 135.744C156.928 135.696 156.812 135.672 156.692 135.672L156.86 134.88C157.036 134.88 157.2 134.908 157.352 134.964C157.512 135.02 157.668 135.112 157.82 135.24L157.412 135.936ZM158.961 141V135H159.753V141H158.961ZM159.357 134.208C159.189 134.208 159.049 134.152 158.937 134.04C158.825 133.928 158.769 133.788 158.769 133.62C158.769 133.452 158.825 133.312 158.937 133.2C159.049 133.08 159.189 133.02 159.357 133.02C159.525 133.02 159.665 133.08 159.777 133.2C159.897 133.312 159.957 133.452 159.957 133.62C159.957 133.788 159.897 133.928 159.777 134.04C159.665 134.152 159.525 134.208 159.357 134.208ZM161.086 138.276V137.592H165.118V138.276H161.086ZM163.054 141.192V140.436H163.102V141.192H163.054ZM161.014 139.032V136.98H161.806V139.032H161.014ZM164.326 137.592V136.8H165.118V137.592H164.326ZM165.118 136.8H164.326C164.326 136.448 164.206 136.156 163.966 135.924C163.726 135.692 163.426 135.576 163.066 135.576V134.82C163.458 134.82 163.806 134.908 164.11 135.084C164.422 135.252 164.666 135.488 164.842 135.792C165.026 136.088 165.118 136.424 165.118 136.8ZM164.35 139.356L165.118 139.524C165.078 139.836 164.962 140.12 164.77 140.376C164.586 140.624 164.346 140.824 164.05 140.976C163.762 141.12 163.442 141.192 163.09 141.192V140.436C163.41 140.436 163.69 140.348 163.93 140.172C164.17 139.996 164.31 139.724 164.35 139.356ZM161.014 136.98C161.014 136.564 161.102 136.196 161.278 135.876C161.462 135.548 161.706 135.292 162.01 135.108C162.322 134.916 162.674 134.82 163.066 134.82V135.576C162.674 135.576 162.366 135.7 162.142 135.948C161.918 136.188 161.806 136.532 161.806 136.98H161.014ZM161.014 139.032H161.806C161.806 139.472 161.918 139.816 162.142 140.064C162.366 140.312 162.674 140.436 163.066 140.436V141.192C162.674 141.192 162.322 141.1 162.01 140.916C161.706 140.724 161.462 140.468 161.278 140.148C161.102 139.82 161.014 139.448 161.014 139.032ZM166.379 141V132.42H167.171V141H166.379ZM168.552 139.044V136.956H169.344V139.044H168.552ZM168.552 136.968C168.552 136.552 168.64 136.184 168.816 135.864C169 135.536 169.244 135.28 169.548 135.096C169.86 134.904 170.212 134.808 170.604 134.808V135.564C170.212 135.564 169.904 135.688 169.68 135.936C169.456 136.176 169.344 136.52 169.344 136.968H168.552ZM171.852 136.644C171.812 136.268 171.672 135.996 171.432 135.828C171.192 135.652 170.912 135.564 170.592 135.564V134.808C170.944 134.808 171.264 134.884 171.552 135.036C171.848 135.18 172.088 135.376 172.272 135.624C172.464 135.872 172.58 136.156 172.62 136.476L171.852 136.644ZM168.552 139.032H169.344C169.344 139.472 169.456 139.816 169.68 140.064C169.904 140.312 170.212 140.436 170.604 140.436V141.192C170.212 141.192 169.86 141.1 169.548 140.916C169.244 140.724 169 140.468 168.816 140.148C168.64 139.82 168.552 139.448 168.552 139.032ZM171.852 139.356L172.62 139.524C172.58 139.836 172.464 140.12 172.272 140.376C172.088 140.624 171.848 140.824 171.552 140.976C171.264 141.12 170.944 141.192 170.592 141.192V140.436C170.912 140.436 171.192 140.348 171.432 140.172C171.672 139.996 171.812 139.724 171.852 139.356ZM176.689 139.032V136.968H177.481V139.032H176.689ZM173.377 139.032V136.968H174.169V139.032H173.377ZM175.405 135.576V134.82H175.453V135.576H175.405ZM175.405 141.18V140.424H175.453V141.18H175.405ZM173.377 136.98C173.377 136.564 173.465 136.196 173.641 135.876C173.825 135.548 174.069 135.292 174.373 135.108C174.685 134.916 175.037 134.82 175.429 134.82V135.576C175.037 135.576 174.729 135.7 174.505 135.948C174.281 136.188 174.169 136.532 174.169 136.98H173.377ZM177.481 136.98H176.689C176.689 136.532 176.577 136.188 176.353 135.948C176.137 135.7 175.829 135.576 175.429 135.576V134.82C175.821 134.82 176.169 134.916 176.473 135.108C176.785 135.292 177.029 135.548 177.205 135.876C177.389 136.196 177.481 136.564 177.481 136.98ZM173.377 139.02H174.169C174.169 139.46 174.281 139.804 174.505 140.052C174.729 140.3 175.037 140.424 175.429 140.424V141.18C175.037 141.18 174.685 141.088 174.373 140.904C174.069 140.712 173.825 140.456 173.641 140.136C173.465 139.808 173.377 139.436 173.377 139.02ZM177.481 139.02C177.481 139.436 177.389 139.808 177.205 140.136C177.029 140.456 176.785 140.712 176.473 140.904C176.169 141.088 175.821 141.18 175.429 141.18V140.424C175.829 140.424 176.137 140.3 176.353 140.052C176.577 139.804 176.689 139.46 176.689 139.02H177.481ZM178.622 140.988H179.414V143.4H178.622V140.988ZM179.414 135V141H178.622V135H179.414ZM182.738 136.8V139.2H181.946V136.8H182.738ZM181.946 139.2H182.738C182.738 139.576 182.654 139.916 182.486 140.22C182.326 140.516 182.102 140.752 181.814 140.928C181.534 141.096 181.214 141.18 180.854 141.18L180.686 140.388C181.046 140.388 181.346 140.276 181.586 140.052C181.826 139.828 181.946 139.544 181.946 139.2ZM178.958 139.2H179.414C179.414 139.544 179.534 139.828 179.774 140.052C180.014 140.276 180.318 140.388 180.686 140.388L180.854 141.18C180.494 141.18 180.17 141.096 179.882 140.928C179.602 140.752 179.378 140.516 179.21 140.22C179.042 139.916 178.958 139.576 178.958 139.2ZM181.946 136.8C181.946 136.456 181.826 136.172 181.586 135.948C181.346 135.724 181.046 135.612 180.686 135.612L180.854 134.82C181.214 134.82 181.534 134.908 181.814 135.084C182.102 135.252 182.326 135.488 182.486 135.792C182.654 136.088 182.738 136.424 182.738 136.8H181.946ZM178.958 136.8C178.958 136.424 179.042 136.088 179.21 135.792C179.378 135.488 179.602 135.252 179.882 135.084C180.17 134.908 180.494 134.82 180.854 134.82L180.686 135.612C180.318 135.612 180.014 135.724 179.774 135.948C179.534 136.172 179.414 136.456 179.414 136.8H178.958ZM184.001 140.988H184.793V143.4H184.001V140.988ZM184.793 135V141H184.001V135H184.793ZM188.117 136.8V139.2H187.325V136.8H188.117ZM187.325 139.2H188.117C188.117 139.576 188.033 139.916 187.865 140.22C187.705 140.516 187.481 140.752 187.193 140.928C186.913 141.096 186.593 141.18 186.233 141.18L186.065 140.388C186.425 140.388 186.725 140.276 186.965 140.052C187.205 139.828 187.325 139.544 187.325 139.2ZM184.337 139.2H184.793C184.793 139.544 184.913 139.828 185.153 140.052C185.393 140.276 185.697 140.388 186.065 140.388L186.233 141.18C185.873 141.18 185.549 141.096 185.261 140.928C184.981 140.752 184.757 140.516 184.589 140.22C184.421 139.916 184.337 139.576 184.337 139.2ZM187.325 136.8C187.325 136.456 187.205 136.172 186.965 135.948C186.725 135.724 186.425 135.612 186.065 135.612L186.233 134.82C186.593 134.82 186.913 134.908 187.193 135.084C187.481 135.252 187.705 135.488 187.865 135.792C188.033 136.088 188.117 136.424 188.117 136.8H187.325ZM184.337 136.8C184.337 136.424 184.421 136.088 184.589 135.792C184.757 135.488 184.981 135.252 185.261 135.084C185.549 134.908 185.873 134.82 186.233 134.82L186.065 135.612C185.697 135.612 185.393 135.724 185.153 135.948C184.913 136.172 184.793 136.456 184.793 136.8H184.337ZM189.211 138.276V137.592H193.243V138.276H189.211ZM191.179 141.192V140.436H191.227V141.192H191.179ZM189.139 139.032V136.98H189.931V139.032H189.139ZM192.451 137.592V136.8H193.243V137.592H192.451ZM193.243 136.8H192.451C192.451 136.448 192.331 136.156 192.091 135.924C191.851 135.692 191.551 135.576 191.191 135.576V134.82C191.583 134.82 191.931 134.908 192.235 135.084C192.547 135.252 192.791 135.488 192.967 135.792C193.151 136.088 193.243 136.424 193.243 136.8ZM192.475 139.356L193.243 139.524C193.203 139.836 193.087 140.12 192.895 140.376C192.711 140.624 192.471 140.824 192.175 140.976C191.887 141.12 191.567 141.192 191.215 141.192V140.436C191.535 140.436 191.815 140.348 192.055 140.172C192.295 139.996 192.435 139.724 192.475 139.356ZM189.139 136.98C189.139 136.564 189.227 136.196 189.403 135.876C189.587 135.548 189.831 135.292 190.135 135.108C190.447 134.916 190.799 134.82 191.191 134.82V135.576C190.799 135.576 190.491 135.7 190.267 135.948C190.043 136.188 189.931 136.532 189.931 136.98H189.139ZM189.139 139.032H189.931C189.931 139.472 190.043 139.816 190.267 140.064C190.491 140.312 190.799 140.436 191.191 140.436V141.192C190.799 141.192 190.447 141.1 190.135 140.916C189.831 140.724 189.587 140.468 189.403 140.148C189.227 139.82 189.139 139.448 189.139 139.032ZM197.311 139.5C197.311 139.284 197.239 139.104 197.095 138.96C196.951 138.816 196.767 138.688 196.543 138.576C196.319 138.456 196.079 138.34 195.823 138.228C195.575 138.108 195.339 137.976 195.115 137.832C194.891 137.68 194.707 137.492 194.563 137.268C194.419 137.044 194.347 136.768 194.347 136.44C194.347 136.44 194.371 136.44 194.419 136.44C194.475 136.44 194.543 136.44 194.623 136.44C194.703 136.44 194.783 136.44 194.863 136.44C194.943 136.44 195.007 136.44 195.055 136.44C195.111 136.44 195.139 136.44 195.139 136.44C195.139 136.656 195.211 136.836 195.355 136.98C195.499 137.124 195.683 137.252 195.907 137.364C196.131 137.476 196.367 137.592 196.615 137.712C196.871 137.824 197.111 137.956 197.335 138.108C197.559 138.26 197.743 138.448 197.887 138.672C198.031 138.888 198.103 139.164 198.103 139.5C198.103 139.5 198.075 139.5 198.019 139.5C197.971 139.5 197.907 139.5 197.827 139.5C197.747 139.5 197.667 139.5 197.587 139.5C197.507 139.5 197.439 139.5 197.383 139.5C197.335 139.5 197.311 139.5 197.311 139.5ZM196.171 141.18V140.424C196.499 140.424 196.771 140.336 196.987 140.16C197.203 139.984 197.311 139.764 197.311 139.5H198.103C198.103 139.82 198.019 140.108 197.851 140.364C197.683 140.612 197.451 140.812 197.155 140.964C196.867 141.108 196.539 141.18 196.171 141.18ZM194.347 136.44C194.347 136.128 194.423 135.848 194.575 135.6C194.727 135.352 194.935 135.16 195.199 135.024C195.471 134.88 195.771 134.808 196.099 134.808V135.564C195.827 135.564 195.599 135.648 195.415 135.816C195.231 135.976 195.139 136.184 195.139 136.44H194.347ZM194.911 139.344C194.951 139.712 195.091 139.984 195.331 140.16C195.571 140.336 195.851 140.424 196.171 140.424V141.18C195.827 141.18 195.507 141.108 195.211 140.964C194.915 140.812 194.671 140.612 194.479 140.364C194.295 140.108 194.183 139.824 194.143 139.512L194.911 139.344ZM197.359 136.644C197.319 136.268 197.179 135.996 196.939 135.828C196.699 135.652 196.419 135.564 196.099 135.564V134.808C196.451 134.808 196.771 134.884 197.059 135.036C197.355 135.18 197.595 135.376 197.779 135.624C197.971 135.872 198.087 136.156 198.127 136.476L197.359 136.644ZM199.739 141C199.571 141 199.431 140.944 199.319 140.832C199.207 140.72 199.151 140.58 199.151 140.412C199.151 140.244 199.207 140.104 199.319 139.992C199.431 139.872 199.571 139.812 199.739 139.812C199.907 139.812 200.047 139.872 200.159 139.992C200.279 140.104 200.339 140.244 200.339 140.412C200.339 140.58 200.279 140.72 200.159 140.832C200.047 140.944 199.907 141 199.739 141ZM205.597 135.012H204.805V132.6H205.597V135.012ZM204.805 141V135H205.597V141H204.805ZM201.481 139.2V136.8H202.273V139.2H201.481ZM202.273 136.8H201.481C201.481 136.424 201.561 136.088 201.721 135.792C201.889 135.488 202.113 135.252 202.393 135.084C202.681 134.908 203.005 134.82 203.365 134.82L203.533 135.612C203.173 135.612 202.873 135.724 202.633 135.948C202.393 136.172 202.273 136.456 202.273 136.8ZM205.261 136.8H204.805C204.805 136.456 204.685 136.172 204.445 135.948C204.205 135.724 203.901 135.612 203.533 135.612L203.365 134.82C203.725 134.82 204.049 134.908 204.337 135.084C204.625 135.252 204.849 135.488 205.009 135.792C205.177 136.088 205.261 136.424 205.261 136.8ZM202.273 139.2C202.273 139.544 202.393 139.828 202.633 140.052C202.873 140.276 203.173 140.388 203.533 140.388L203.365 141.18C203.005 141.18 202.681 141.096 202.393 140.928C202.113 140.752 201.889 140.516 201.721 140.22C201.561 139.916 201.481 139.576 201.481 139.2H202.273ZM205.261 139.2C205.261 139.576 205.177 139.916 205.009 140.22C204.849 140.516 204.625 140.752 204.337 140.928C204.049 141.096 203.725 141.18 203.365 141.18L203.533 140.388C203.901 140.388 204.205 140.276 204.445 140.052C204.685 139.828 204.805 139.544 204.805 139.2H205.261ZM206.812 138.276V137.592H210.844V138.276H206.812ZM208.78 141.192V140.436H208.828V141.192H208.78ZM206.74 139.032V136.98H207.532V139.032H206.74ZM210.052 137.592V136.8H210.844V137.592H210.052ZM210.844 136.8H210.052C210.052 136.448 209.932 136.156 209.692 135.924C209.452 135.692 209.152 135.576 208.792 135.576V134.82C209.184 134.82 209.532 134.908 209.836 135.084C210.148 135.252 210.392 135.488 210.568 135.792C210.752 136.088 210.844 136.424 210.844 136.8ZM210.076 139.356L210.844 139.524C210.804 139.836 210.688 140.12 210.496 140.376C210.312 140.624 210.072 140.824 209.776 140.976C209.488 141.12 209.168 141.192 208.816 141.192V140.436C209.136 140.436 209.416 140.348 209.656 140.172C209.896 139.996 210.036 139.724 210.076 139.356ZM206.74 136.98C206.74 136.564 206.828 136.196 207.004 135.876C207.188 135.548 207.432 135.292 207.736 135.108C208.048 134.916 208.4 134.82 208.792 134.82V135.576C208.4 135.576 208.092 135.7 207.868 135.948C207.644 136.188 207.532 136.532 207.532 136.98H206.74ZM206.74 139.032H207.532C207.532 139.472 207.644 139.816 207.868 140.064C208.092 140.312 208.4 140.436 208.792 140.436V141.192C208.4 141.192 208.048 141.1 207.736 140.916C207.432 140.724 207.188 140.468 207.004 140.148C206.828 139.82 206.74 139.448 206.74 139.032ZM213.63 141L215.622 135H216.414L214.422 141H213.63ZM213.618 141L211.626 135H212.418L214.41 141H213.618Z" fill="black"/>
</svg>
