<?xml version="1.0" encoding="UTF-8" standalone="no"?>
<svg
   width="20"
   height="14"
   viewBox="0 0 20 14"
   fill="none"
   version="1.1"
   id="svg1"
   sodipodi:docname="social-icons-bluesky.svg"
   inkscape:version="1.3.2 (091e20e, 2023-11-25, custom)"
   xmlns:inkscape="http://www.inkscape.org/namespaces/inkscape"
   xmlns:sodipodi="http://sodipodi.sourceforge.net/DTD/sodipodi-0.dtd"
   xmlns="http://www.w3.org/2000/svg"
   xmlns:svg="http://www.w3.org/2000/svg">
  <defs
     id="defs1" />
  <sodipodi:namedview
     id="namedview1"
     pagecolor="#ffffff"
     bordercolor="#000000"
     borderopacity="0.25"
     inkscape:showpageshadow="2"
     inkscape:pageopacity="0.0"
     inkscape:pagecheckerboard="0"
     inkscape:deskcolor="#d1d1d1"
     inkscape:zoom="12.982036"
     inkscape:cx="0.69326569"
     inkscape:cy="9.5901753"
     inkscape:window-width="1920"
     inkscape:window-height="1009"
     inkscape:window-x="-8"
     inkscape:window-y="-8"
     inkscape:window-maximized="1"
     inkscape:current-layer="svg1" />
  <g
     id="bluesky"
     inkscape:label="bluesky">
    <path
       d="m 3.628039,1.2718057 c 1.7152,1.2876879 3.559988,3.8986372 4.237403,5.2996647 0.677414,-1.4010275 2.522205,-4.0119768 4.237407,-5.2996647 1.237595,-0.92912443 3.242893,-1.64803786 3.242893,0.6395836 0,0.4568563 -0.261943,3.8379336 -0.415578,4.3868923 -0.534025,1.9083443 -2.479955,2.3950902 -4.210958,2.1004877 3.025699,0.5149551 3.79538,2.2206737 2.133095,3.9263917 -3.157005,3.239494 -4.537488,-0.812797 -4.891222,-1.851135 -0.06485,-0.190353 -0.09519,-0.279405 -0.09564,-0.203681 -4.48e-4,-0.07572 -0.03079,0.01333 -0.09564,0.203681 C 7.416065,11.512364 6.035582,15.564655 2.878574,12.325161 1.2162862,10.619443 1.985972,8.9137244 5.011677,8.3987693 3.280674,8.6933718 1.3347571,8.2066259 0.8007142,6.2982816 0.6470902,5.7493229 0.3851412,2.3682456 0.3851412,1.9113893 c 0,-2.28762146 2.0053118,-1.56870803 3.2428918,-0.6395836 z"
       fill="#000000"
       id="path1"
       inkscape:label="path1"
       style="stroke-width:0.026339;fill:#808080" />
  </g>
</svg>
